PathFileType	4	(X/Y/Z)	c:/Users/goper/Files/vsCode/490R/osim_files/C03/C03_fast_01.trc
DataRate	CameraRate	NumFrames	NumMarkers	Units                	OrigDataRate	OrigDataStartFrame	OrigNumFrames
250.00	250.00	6	36	mm	250.0	1381	2760
                Frame#	Time	LPSIS			LASIS			LTH1			LTH2			LTH3			LTH4			LLFE			LMFE			LSH1			LSH2			LSH3			LSH4			LLMAL			LMMAL			LCAL			LMTP5			LTOE			LMTP1			RPSIS			RASIS			RTH1			RTH2			RTH3			RTH4			RLFE			RMFE			RSH1			RSH2			RSH3			RSH4			RLMAL			RMMAL			RCAL			RMTP1			RTOE			RMTP5		
		X1	Y1	Z1	X2	Y2	Z2	X3	Y3	Z3	X4	Y4	Z4	X5	Y5	Z5	X6	Y6	Z6	X7	Y7	Z7	X8	Y8	Z8	X9	Y9	Z9	X10	Y10	Z10	X11	Y11	Z11	X12	Y12	Z12	X13	Y13	Z13	X14	Y14	Z14	X15	Y15	Z15	X16	Y16	Z16	X17	Y17	Z17	X18	Y18	Z18	X19	Y19	Z19	X20	Y20	Z20	X21	Y21	Z21	X22	Y22	Z22	X23	Y23	Z23	X24	Y24	Z24	X25	Y25	Z25	X26	Y26	Z26	X27	Y27	Z27	X28	Y28	Z28	X29	Y29	Z29	X30	Y30	Z30	X31	Y31	Z31	X32	Y32	Z32	X33	Y33	Z33	X34	Y34	Z34	X35	Y35	Z35	X36	Y36	Z36

1381	5.52000	-498.32321	1032.03796	278.77444	-675.94952	973.11121	300.38629	-707.01343	635.12329	353.69019	-738.78314	582.47729	345.14081	-773.21594	670.48779	347.18021	-796.34009	613.71661	338.45602	-788.85596	517.41888	336.59137	-795.88483	510.02548	225.59874	-749.53192	329.01926	344.62543	-761.79437	284.29047	342.41782	-808.11719	342.63165	355.01187	-812.07739	294.59766	351.83142	-830.01727	125.34601	330.05536	-852.42261	142.51369	254.05775	-773.45648	73.05016	293.18405	-971.18439	91.53095	355.98843	-998.23645	119.18340	303.41205	-980.40662	99.92259	262.99454	-495.93527	1026.21338	166.67636	-660.30145	972.92694	96.59962	-450.93100	621.53949	101.63231	-436.52551	563.04395	117.65935	-511.53720	606.46112	82.61707	-506.53818	545.36682	93.51249	-485.48593	478.27289	115.69553	-474.77582	502.84323	224.64590	-360.28192	315.73962	113.33287	-353.79422	268.35843	119.03562	-419.44189	297.74631	106.44165	-404.42252	257.28024	111.20319	-365.76358	108.07992	144.27475	-376.04071	110.65312	224.77028	-291.05365	74.01496	175.96913	-492.14987	48.99592	225.30362	-522.62738	63.45361	187.45680	-472.33780	38.86366	119.03169
1382	5.52400	-504.89957	1030.47388	279.32602	-683.10449	971.99615	300.16138	-712.38727	632.76196	354.47754	-744.17236	579.97516	346.02664	-778.71637	667.91913	347.57538	-801.83704	611.19489	338.88324	-794.77490	515.27087	337.22495	-801.46765	507.91812	226.12303	-760.34412	326.10446	345.55588	-773.87097	281.75046	343.07971	-818.69073	341.34042	355.53964	-823.93457	293.38217	352.43866	-846.79120	124.63094	330.53787	-868.28345	142.67316	254.44154	-791.59265	70.50189	293.78860	-988.97400	94.99445	355.77347	-1014.95642	123.54247	303.09781	-996.96680	103.85387	262.59579	-502.11057	1024.93054	167.30795	-666.19623	971.60669	96.56967	-454.28799	621.59619	102.05663	-439.69461	563.20319	118.02205	-514.79053	606.12909	82.67879	-509.47733	545.05951	93.55662	-487.92029	477.98325	115.65962	-477.96173	502.62866	224.88754	-361.89758	316.29321	113.68687	-354.94229	269.00159	119.52202	-420.74063	297.87659	106.60997	-405.47961	257.46649	111.46405	-366.09424	108.45864	144.65085	-376.47009	111.00352	225.02615	-291.29755	74.63123	176.26428	-492.26749	48.93325	225.29637	-522.80536	63.31321	187.38943	-472.33514	38.84101	119.04233
1383	5.52800	-511.48502	1028.95361	279.85068	-689.83868	970.45502	300.19449	-717.81213	630.28949	355.24796	-749.57288	577.30688	346.84564	-784.22784	665.29047	348.11017	-807.06079	608.36707	339.58398	-800.84521	512.99066	337.84833	-806.96130	505.70663	226.66028	-771.13849	323.37479	346.28137	-785.90887	279.31155	343.68088	-829.11676	340.10135	356.09552	-835.61914	292.30185	352.97278	-863.28882	124.24427	330.88583	-883.90607	142.84557	254.73384	-809.54517	68.24138	294.37021	-1006.38922	98.63144	355.49783	-1031.33386	127.67175	302.47858	-1013.71356	107.84793	262.32242	-508.34512	1023.57794	167.89648	-672.09247	970.34045	96.53515	-457.89014	621.57990	102.39815	-442.83075	563.34955	118.48384	-518.14911	605.75244	82.79144	-512.41003	544.72516	93.58391	-490.53793	477.72610	115.64863	-481.40506	502.27844	225.08226	-363.39780	316.96533	114.12432	-356.11069	269.56180	120.01594	-422.05417	298.00323	106.83254	-406.49747	257.75922	111.67357	-366.51340	108.92284	145.00626	-376.94162	111.39651	225.29303	-291.50089	75.37302	176.58505	-492.39423	48.83974	225.27486	-522.94983	63.18834	187.34918	-472.23447	38.64923	119.25481
1384	5.53200	-518.02496	1027.29419	280.51938	-696.56378	968.83807	300.12927	-723.20734	627.67297	355.98489	-754.72772	574.70605	347.76199	-789.65936	662.53613	348.75159	-812.42200	605.53857	340.34991	-806.71918	510.69888	338.53140	-812.28180	503.52109	227.08733	-781.44000	320.70288	347.09814	-797.66125	276.99677	344.41547	-839.39453	338.96304	356.64700	-847.20618	291.20184	353.49023	-879.57037	124.20684	331.20352	-899.32385	143.10573	255.00815	-827.33771	66.22429	294.91763	-1023.40265	102.50865	355.32434	-1047.29431	132.28528	302.13062	-1030.21179	111.66447	262.33319	-514.59967	1022.18921	168.56061	-678.05688	969.08411	96.56278	-461.52240	621.60394	102.86551	-446.29855	563.46667	118.92756	-521.51782	605.45917	82.89783	-515.58521	544.46875	93.62016	-493.23926	477.47125	115.64587	-484.99246	501.95511	225.21544	-364.98471	317.56326	114.57561	-357.47266	270.18893	120.45300	-423.56848	298.17334	107.06260	-407.66821	258.04883	112.00447	-366.82532	109.38638	145.29893	-377.35959	111.78117	225.52850	-291.82385	76.11325	176.88811	-492.60449	48.79633	225.28059	-523.10779	63.04696	187.27682	-472.20239	38.63995	119.26612
1385	5.53600	-525.06824	1024.65710	280.42471	-703.81140	967.83514	299.81558	-728.49866	625.07391	356.91077	-759.81104	572.02441	348.65292	-795.07617	659.69586	349.60172	-817.58728	602.62402	341.24420	-812.62769	508.34369	339.19543	-817.68152	501.17825	227.74899	-792.51367	318.04037	347.70432	-809.57635	274.68808	344.95630	-849.63397	337.80127	357.14188	-858.61816	290.23596	354.02292	-895.32965	124.25816	331.57416	-914.35492	143.56235	255.19438	-844.80298	64.51875	295.42935	-1039.95007	106.59132	355.02563	-1062.96912	136.95221	301.91458	-1045.87952	116.24283	261.57050	-520.83923	1020.76709	169.19373	-684.13593	967.74402	96.56965	-465.28815	621.59082	103.32951	-449.75238	563.53339	119.40347	-525.06067	605.12781	83.03849	-518.75342	544.16913	93.64224	-495.97668	477.22192	115.63759	-488.66675	501.63232	225.41922	-366.81436	318.16821	114.95013	-358.90900	270.90540	121.10651	-424.98959	298.44272	107.25524	-408.99637	258.38910	112.21458	-367.17218	109.93966	145.68649	-377.98413	112.23803	225.84763	-292.10736	76.88242	177.16515	-492.73364	48.70967	225.30559	-523.22375	62.71244	187.53954	-472.19678	38.64284	119.32088
1386	5.54000	-531.73822	1022.73523	281.00943	-710.65228	966.22095	299.83514	-733.88672	622.46625	357.80997	-764.98029	569.27814	349.54166	-800.54004	656.79980	350.47989	-822.83484	599.57361	342.20374	-818.38635	505.95004	339.86954	-822.79034	498.86917	228.26254	-803.08917	315.49655	348.27951	-821.15247	272.57455	345.55362	-859.68176	336.59067	357.65573	-869.79486	289.32437	354.56433	-911.45667	123.37355	331.87674	-929.05719	144.27539	255.46465	-861.87109	62.96318	296.05713	-1056.34448	110.74918	354.56082	-1077.96057	141.84442	301.52853	-1061.50940	120.44007	261.40335	-527.14606	1019.24872	169.88147	-689.97009	966.59045	96.53732	-469.28156	621.61554	103.82257	-453.52936	563.50659	119.97045	-528.71722	604.83191	83.12836	-522.16095	543.87286	93.66599	-499.03751	476.94135	115.71455	-492.65570	501.22809	225.72961	-368.64062	318.80392	115.54542	-360.42126	271.61526	121.53401	-426.79245	298.66809	107.56771	-410.24530	258.73370	112.47256	-367.47910	110.51181	146.01350	-378.62506	112.70827	226.19678	-292.41559	77.73763	177.54494	-492.91220	48.61919	225.31233	-523.49841	62.62093	187.31508	-472.17883	38.66097	119.35831
